<?xml version="1.0" standalone="no"?>
<!DOCTYPE svg PUBLIC "-//W3C//DTD SVG 20010904//EN"
 "http://www.w3.org/TR/2001/REC-SVG-20010904/DTD/svg10.dtd">
<svg version="1.0" xmlns="http://www.w3.org/2000/svg"
 width="1080.000000pt" height="2400.000000pt" viewBox="0 0 1080.000000 2400.000000"
 preserveAspectRatio="xMidYMid meet">

<g transform="translate(0.000000,2400.000000) scale(0.100000,-0.100000)"
fill="#000000" stroke="none">
<path d="M752 23665 c-138 -43 -223 -185 -193 -319 24 -109 107 -193 215 -216
34 -8 186 -10 471 -8 407 3 421 4 460 24 102 55 159 146 159 254 0 108 -57
199 -159 254 -39 20 -51 21 -475 23 -346 2 -444 -1 -478 -12z m534 -126 l74
-31 0 -89 c0 -85 -1 -90 -31 -124 -18 -20 -52 -45 -76 -56 l-44 -20 -44 21
c-24 12 -58 37 -75 56 -29 33 -30 39 -30 122 l0 88 68 31 c37 17 71 32 75 32
5 1 42 -13 83 -30z"/>
<path d="M1143 23503 l-53 -25 0 -63 c0 -73 19 -104 81 -135 39 -20 39 -20 78
0 62 31 81 63 81 134 l0 62 -55 27 c-31 15 -61 27 -68 26 -6 0 -36 -12 -64
-26z m49 -40 c17 -15 19 -15 36 0 10 10 27 17 36 17 17 0 17 -2 2 -25 -20 -30
-20 -35 -1 -35 24 0 17 -30 -7 -31 l-23 -2 23 -4 c31 -6 29 -33 -3 -33 -18 0
-25 -5 -25 -20 0 -13 -7 -20 -20 -20 -13 0 -20 7 -20 20 0 15 -7 20 -25 20
-29 0 -36 29 -7 31 16 1 16 2 0 6 -22 5 -24 33 -3 33 8 0 15 4 15 9 0 5 -7 14
-15 21 -8 7 -15 16 -15 21 0 15 32 10 52 -8z"/>
<path d="M7390 23525 c0 -36 -3 -65 -7 -65 -4 0 -20 12 -35 27 -23 22 -31 24
-41 14 -10 -10 -2 -21 37 -57 l50 -44 -40 -34 c-21 -19 -42 -35 -46 -36 -11 0
-10 -28 1 -34 5 -4 23 5 39 19 16 14 33 25 36 25 3 0 6 -27 6 -59 0 -33 4 -62
8 -65 11 -6 132 93 132 108 0 6 -17 26 -37 44 l-38 32 38 34 c20 18 37 38 37
44 0 13 -114 112 -129 112 -7 0 -11 -24 -11 -65z m90 -44 c0 -8 -43 -51 -52
-51 -4 0 -8 23 -8 50 l0 51 30 -23 c17 -12 30 -24 30 -27z m-23 -133 l23 -22
-22 -23 c-31 -33 -38 -29 -38 22 0 25 3 45 7 45 4 0 17 -10 30 -22z"/>
<path d="M8120 23507 l0 -77 45 0 c25 0 45 5 45 10 0 6 -18 10 -41 10 l-41 0
4 59 c2 33 0 63 -4 67 -5 4 -8 -27 -8 -69z"/>
<path d="M8200 23570 c0 -5 9 -10 20 -10 18 0 20 -7 20 -65 0 -37 4 -65 10
-65 6 0 10 28 10 65 0 63 1 65 25 65 14 0 25 5 25 10 0 6 -25 10 -55 10 -30 0
-55 -4 -55 -10z"/>
<path d="M8330 23505 l0 -75 45 0 c25 0 45 5 45 10 0 6 -18 10 -41 10 -36 0
-40 2 -37 23 2 17 11 23 38 28 l35 6 -35 4 c-27 3 -36 9 -38 27 -3 20 1 22 37
22 23 0 41 5 41 10 0 6 -20 10 -45 10 l-45 0 0 -75z"/>
<path d="M3600 23405 c0 -140 2 -165 15 -165 13 0 15 25 15 165 0 140 -2 165
-15 165 -13 0 -15 -25 -15 -165z"/>
<path d="M8944 23538 c-12 -5 -27 -21 -33 -34 -14 -32 -14 -176 0 -208 20 -43
48 -47 317 -44 312 4 297 -4 297 149 0 98 -1 101 -28 125 l-28 24 -252 -1
c-152 0 -261 -4 -273 -11z m540 -40 c11 -16 16 -46 16 -98 0 -126 15 -120
-282 -120 -304 0 -288 -7 -288 118 0 129 -17 122 286 122 250 0 253 0 268 -22z"/>
<path d="M8983 23483 c-9 -3 -13 -30 -13 -83 0 -62 3 -79 16 -84 9 -3 65 -6
125 -6 l109 0 0 90 0 90 -112 -1 c-62 0 -119 -3 -125 -6z"/>
<path d="M4110 23512 c-32 -32 -38 -64 -19 -106 13 -27 60 -52 84 -42 22 8 19
-9 -10 -54 -30 -47 -30 -50 -6 -50 13 0 33 23 62 73 71 117 56 191 -39 204
-36 5 -45 2 -72 -25z m108 -30 c25 -32 7 -75 -35 -85 -32 -7 -63 19 -63 53 0
53 64 74 98 32z"/>
<path d="M7690 23520 c-17 -17 -20 -33 -20 -120 0 -137 3 -140 150 -140 147 0
150 3 150 140 0 137 -3 140 -150 140 -97 0 -112 -2 -130 -20z m52 -82 c2 -13
10 -23 18 -23 8 0 16 10 18 23 2 12 10 22 18 22 11 0 14 -15 14 -60 0 -47 -3
-60 -15 -60 -8 0 -15 9 -15 20 0 13 -7 20 -20 20 -13 0 -20 -7 -20 -20 0 -11
-7 -20 -15 -20 -12 0 -15 13 -15 60 0 45 3 60 14 60 8 0 16 -10 18 -22z m173
8 c11 -8 18 -26 18 -46 0 -40 -24 -60 -70 -60 l-33 0 0 60 0 60 33 0 c18 0 42
-6 52 -14z"/>
<path d="M7860 23400 c0 -25 4 -31 18 -28 11 2 17 12 17 28 0 16 -6 26 -17 28
-14 3 -18 -3 -18 -28z"/>
<path d="M8711 23526 c-8 -9 -11 -57 -9 -147 3 -126 4 -134 23 -134 19 0 20 8
23 148 2 121 0 147 -12 147 -7 0 -19 -6 -25 -14z"/>
<path d="M2040 23515 c0 -11 12 -15 50 -15 28 0 50 -4 50 -8 0 -4 -16 -23 -35
-42 -39 -38 -33 -60 16 -60 19 0 34 -8 45 -25 15 -23 15 -27 0 -50 -20 -31
-61 -33 -91 -5 -19 18 -24 19 -34 6 -9 -11 -7 -18 15 -35 38 -30 103 -29 132
2 43 46 18 137 -38 137 -28 0 -25 11 15 50 54 52 48 60 -45 60 -64 0 -80 -3
-80 -15z"/>
<path d="M2370 23515 c0 -11 12 -15 50 -15 28 0 50 -4 50 -8 0 -4 -16 -23 -35
-42 -39 -38 -34 -57 17 -62 42 -4 62 -35 45 -68 -17 -33 -62 -39 -91 -11 -17
16 -25 18 -34 9 -9 -9 -7 -17 10 -35 31 -33 106 -33 136 0 30 32 29 87 -1 115
-13 12 -31 22 -40 22 -25 0 -21 12 18 50 54 52 48 60 -45 60 -64 0 -80 -3 -80
-15z"/>
<path d="M2590 23515 c0 -11 12 -15 50 -15 28 0 50 -4 50 -8 0 -4 -16 -23 -35
-42 -27 -26 -32 -36 -23 -47 6 -8 18 -13 27 -11 51 7 83 -38 55 -79 -17 -27
-59 -30 -85 -7 -11 10 -25 14 -36 9 -16 -6 -15 -9 10 -31 38 -33 105 -33 135
-1 30 32 29 87 -1 115 -13 12 -31 22 -40 22 -25 0 -21 12 18 50 54 52 48 60
-45 60 -64 0 -80 -3 -80 -15z"/>
<path d="M2920 23395 c0 -128 1 -135 20 -135 17 0 20 7 20 49 l0 49 57 4 c68
6 93 30 93 89 0 62 -24 79 -115 79 l-75 0 0 -135z m146 80 c23 -35 10 -62 -34
-75 -68 -19 -72 -16 -72 45 l0 55 45 0 c36 0 48 -5 61 -25z"/>
<path d="M3160 23395 c0 -128 1 -135 20 -135 19 0 20 7 20 103 l0 102 43 -67
c23 -38 48 -68 55 -68 7 0 25 21 40 46 60 102 61 101 62 -13 0 -85 3 -103 15
-103 13 0 15 22 15 135 0 123 -2 135 -18 135 -12 0 -33 -26 -63 -75 -24 -41
-47 -75 -50 -75 -4 0 -28 34 -54 75 -32 51 -53 75 -66 75 -18 0 -19 -8 -19
-135z"/>
<path d="M3800 23515 c0 -11 12 -15 50 -15 28 0 50 -4 50 -8 0 -4 -16 -23 -35
-42 -39 -38 -33 -60 16 -60 19 0 34 -8 45 -25 15 -23 15 -27 0 -50 -20 -31
-61 -33 -91 -5 -19 18 -24 19 -34 6 -9 -11 -7 -18 15 -35 38 -30 103 -29 132
2 43 46 18 137 -38 137 -28 0 -25 11 15 50 54 52 48 60 -45 60 -64 0 -80 -3
-80 -15z"/>
<path d="M4320 23395 c0 -128 1 -135 20 -135 17 0 20 7 20 48 0 35 5 54 19 66
18 16 21 14 65 -49 30 -42 54 -65 67 -65 10 0 19 2 19 4 0 3 -22 37 -50 77
-27 40 -50 77 -50 83 0 6 21 32 47 58 44 45 46 48 23 48 -18 0 -41 -17 -82
-62 l-57 -63 -1 63 c0 55 -2 62 -20 62 -19 0 -20 -7 -20 -135z"/>
<path d="M9697 23463 c-6 -57 -4 -70 10 -80 9 -7 19 -9 22 -4 21 31 84 18 96
-19 17 -52 -55 -91 -96 -54 -11 10 -25 14 -36 9 -16 -6 -15 -9 10 -31 20 -17
40 -24 71 -24 57 0 86 30 86 87 0 55 -37 87 -92 80 l-38 -5 0 39 0 39 60 0
c47 0 60 3 60 15 0 12 -15 15 -74 15 l-73 0 -6 -67z"/>
<path d="M9928 23514 c-16 -8 -28 -21 -28 -29 0 -17 26 -20 35 -5 18 29 25 0
25 -105 0 -107 1 -115 19 -115 19 0 20 8 19 135 -1 130 -2 135 -22 135 -12 -1
-33 -8 -48 -16z"/>
<path d="M2267 23493 c-4 -3 -7 -15 -7 -25 0 -23 38 -25 47 -2 8 21 -24 43
-40 27z"/>
<path d="M8617 23475 c-15 -11 -17 -27 -15 -121 3 -101 4 -109 23 -109 19 0
20 8 23 114 1 63 -1 118 -5 122 -4 4 -16 2 -26 -6z"/>
<path d="M9554 23437 c-10 -28 0 -82 16 -82 11 0 15 12 15 44 0 44 -19 68 -31
38z"/>
<path d="M8516 23417 c-14 -10 -16 -26 -14 -92 3 -72 5 -80 23 -80 18 0 20 8
23 93 1 50 -1 92 -6 92 -4 0 -16 -6 -26 -13z"/>
<path d="M10072 23421 c-8 -4 -12 -19 -10 -32 4 -29 45 -34 61 -7 19 30 -19
60 -51 39z m38 -26 c0 -8 -7 -15 -15 -15 -8 0 -15 7 -15 15 0 8 7 15 15 15 8
0 15 -7 15 -15z"/>
<path d="M10136 23353 c-32 -45 -51 -80 -45 -82 13 -4 24 9 90 102 27 38 35
57 26 57 -8 0 -40 -35 -71 -77z"/>
<path d="M8412 23361 c-9 -5 -12 -25 -10 -62 3 -46 6 -54 23 -54 18 0 20 8 23
63 3 63 -4 74 -36 53z"/>
<path d="M8130 23330 c0 -20 -5 -30 -15 -30 -20 0 -19 -13 3 -33 32 -30 42
-21 42 38 0 42 -3 55 -15 55 -10 0 -15 -10 -15 -30z"/>
<path d="M8190 23305 c0 -30 5 -55 10 -55 6 0 10 11 10 25 0 17 7 28 20 33
l21 8 -21 22 c-32 34 -40 27 -40 -33z"/>
<path d="M2267 23343 c-4 -3 -7 -15 -7 -25 0 -23 38 -25 47 -2 8 21 -24 43
-40 27z"/>
<path d="M10174 23326 c-11 -28 1 -51 25 -51 32 0 49 28 32 49 -17 20 -50 21
-57 2z m44 -24 c2 -7 -3 -12 -12 -12 -9 0 -16 7 -16 16 0 17 22 14 28 -4z"/>
<path d="M8312 23308 c-33 -16 -27 -63 8 -63 22 0 25 5 28 38 3 39 0 42 -36
25z"/>
<path d="M4023 23303 c-21 -8 -15 -43 6 -43 11 0 23 5 27 11 8 14 -17 38 -33
32z"/>
<path d="M4590 23280 c0 -13 7 -20 20 -20 13 0 20 7 20 20 0 13 -7 20 -20 20
-13 0 -20 -7 -20 -20z"/>
<path d="M4710 23280 c0 -15 7 -20 25 -20 18 0 25 5 25 20 0 15 -7 20 -25 20
-18 0 -25 -5 -25 -20z"/>
<path d="M4840 23280 c0 -13 7 -20 20 -20 13 0 20 7 20 20 0 13 -7 20 -20 20
-13 0 -20 -7 -20 -20z"/>
<path d="M8790 22298 l0 -112 -35 34 c-33 32 -36 33 -52 17 -17 -16 -14 -21
50 -85 l67 -67 65 65 c59 60 63 66 49 84 -14 19 -15 19 -47 -12 -18 -18 -36
-32 -40 -32 -4 0 -7 50 -7 110 l0 110 -25 0 -25 0 0 -112z"/>
<path d="M10106 22397 c-37 -27 -12 -96 35 -97 21 0 49 32 49 57 0 23 -29 53
-51 53 -9 0 -23 -6 -33 -13z"/>
<path d="M662 22297 c-56 -56 -102 -107 -102 -112 0 -11 201 -215 212 -215 4
0 12 10 19 21 10 19 3 29 -62 95 l-73 74 167 0 167 0 0 25 0 25 -165 0 c-91 0
-165 3 -165 7 0 4 32 40 72 80 61 62 70 74 58 87 -7 9 -15 16 -19 16 -3 0 -52
-46 -109 -103z"/>
<path d="M10102 22228 c-7 -7 -12 -24 -12 -38 0 -33 17 -50 50 -50 32 0 50 17
50 46 0 44 -58 72 -88 42z"/>
<path d="M8607 22104 c-16 -16 -7 -94 13 -114 19 -19 33 -20 198 -20 206 0
212 2 212 83 0 49 -8 61 -34 51 -11 -4 -16 -19 -16 -45 l0 -39 -162 2 -163 3
-5 40 c-5 38 -25 56 -43 39z"/>
<path d="M10106 22064 c-29 -29 -10 -94 27 -94 25 0 57 32 57 55 0 23 -32 55
-57 55 -6 0 -19 -7 -27 -16z"/>
<path d="M4356 20171 c-13 -5 -16 -10 -8 -15 14 -8 62 3 62 15 0 11 -27 11
-54 0z"/>
<path d="M4420 20167 c0 -9 9 -21 20 -27 18 -9 20 -8 20 15 0 15 -4 24 -10 20
-6 -4 -8 -12 -4 -18 3 -7 -2 -3 -10 7 -14 17 -16 17 -16 3z"/>
<path d="M4525 20130 c4 -26 3 -40 -4 -40 -6 0 -11 -6 -11 -14 0 -20 -53 -16
-62 5 -4 10 -16 15 -32 14 -14 -2 -30 3 -36 10 -9 11 -19 5 -52 -27 -22 -21
-42 -37 -44 -35 -2 2 7 25 21 51 29 55 31 66 10 66 -60 0 -193 -106 -239 -191
-25 -45 -28 -56 -18 -82 10 -25 9 -30 -8 -34 -24 -7 -34 -79 -20 -152 23 -122
100 -231 201 -286 47 -25 53 -26 64 -12 7 9 15 13 19 9 4 -4 12 1 17 11 15 26
25 21 39 -24 l14 -41 80 4 c104 6 177 39 255 113 141 134 170 349 69 508 -43
67 -132 143 -195 167 -74 27 -76 27 -68 -20z m50 -79 c3 -5 -6 -8 -20 -7 -35
4 -44 16 -12 16 14 0 28 -4 32 -9z m-311 -26 c-4 -8 -10 -15 -15 -15 -4 0 -6
7 -3 15 4 8 10 15 15 15 4 0 6 -7 3 -15z m327 -27 c32 -45 45 -58 53 -51 3 4
6 2 6 -4 0 -18 -28 -23 -34 -7 -3 9 -10 13 -14 10 -5 -3 -16 8 -26 25 -19 32
-50 38 -65 12 -10 -17 -10 -17 -11 -1 0 18 36 48 57 48 6 0 22 -15 34 -32z
m-446 -78 c-3 -5 -12 -10 -18 -10 -7 0 -6 4 3 10 19 12 23 12 15 0z m475 -30
c0 -5 -4 -10 -10 -10 -5 0 -10 5 -10 10 0 6 5 10 10 10 6 0 10 -4 10 -10z
m170 -220 c13 -8 13 -10 -1 -10 -9 0 -22 -7 -29 -15 -9 -11 -16 -13 -24 -5 -7
7 -4 14 10 25 23 17 25 17 44 5z m-326 -226 c26 -10 7 -24 -32 -24 l-37 1 25
14 c30 17 25 16 44 9z"/>
<path d="M5760 19795 l0 -235 25 0 25 0 0 100 c0 108 11 146 52 174 33 23 81
20 106 -7 20 -21 22 -34 22 -145 l0 -122 30 0 30 0 0 114 c0 120 -8 157 -42
193 -40 43 -125 42 -172 -2 l-26 -24 0 94 c0 95 0 95 -25 95 l-25 0 0 -235z"/>
<path d="M5260 19893 c-8 -3 -27 -17 -42 -31 l-28 -26 0 27 c0 22 -5 27 -25
27 l-25 0 0 -170 0 -170 25 0 c25 0 25 0 25 99 0 145 24 191 101 191 38 0 40
1 37 28 -2 21 -9 27 -28 29 -14 1 -32 -1 -40 -4z"/>
<path d="M5465 19888 c-42 -15 -75 -47 -96 -93 -49 -106 15 -234 125 -250 49
-8 76 -2 124 27 97 59 95 237 -4 299 -39 24 -109 32 -149 17z m139 -77 c28
-28 31 -38 31 -92 0 -57 -2 -62 -39 -96 -35 -32 -42 -35 -83 -30 -54 6 -89 36
-103 89 -18 65 14 139 70 161 34 14 93 -2 124 -32z"/>
<path d="M6185 19886 c-16 -7 -38 -23 -48 -34 -18 -20 -18 -21 2 -32 18 -9 26
-7 48 9 55 44 153 11 153 -51 0 -22 -3 -23 -86 -23 -84 0 -86 -1 -115 -33 -54
-61 -31 -147 47 -172 43 -14 93 -6 127 20 31 24 39 25 35 3 -3 -20 31 -31 42
-14 3 6 6 66 4 132 -2 102 -5 126 -21 148 -40 55 -123 75 -188 47z m129 -176
c31 -11 34 -44 8 -76 -38 -47 -107 -59 -142 -24 -27 27 -25 56 5 85 26 27 82
33 129 15z"/>
<path d="M6585 19885 c-16 -9 -36 -23 -42 -32 -11 -15 -13 -14 -13 10 0 22 -5
27 -25 27 l-25 0 0 -170 0 -170 25 0 25 0 0 110 c0 117 12 159 49 180 34 18
80 12 106 -15 24 -23 25 -30 25 -150 l0 -125 25 0 25 0 0 130 c0 150 -10 183
-65 206 -44 18 -73 18 -110 -1z"/>
<path d="M2222 17928 l3 -673 673 -3 672 -2 0 675 0 675 -675 0 -675 0 2 -672z
m1158 0 l0 -483 -482 3 -483 2 3 480 2 480 480 0 480 0 0 -482z"/>
<path d="M2610 17930 l0 -290 288 2 287 3 0 285 0 285 -287 3 -288 2 0 -290z"/>
<path d="M4150 18505 l0 -95 95 0 95 0 0 -95 0 -95 95 0 95 0 0 190 0 190
-190 0 -190 0 0 -95z"/>
<path d="M4920 18505 l0 -95 -95 0 -95 0 0 -95 0 -95 95 0 95 0 0 -290 0 -290
95 0 95 0 0 -95 0 -95 95 0 95 0 0 -100 0 -100 -95 0 -94 0 -3 98 -3 97 -90 0
-90 0 -3 -97 -3 -98 -94 0 -95 0 -2 193 -3 192 -288 3 -288 2 3 93 3 92 188 3
187 2 0 95 0 95 -87 0 c-49 1 -133 2 -188 3 l-100 2 -3 98 -3 97 -94 0 -94 0
-3 93 -3 92 -97 3 -98 3 0 -96 0 -95 100 0 100 0 0 -195 0 -195 -99 0 -98 0
-2 -95 -2 -94 98 -3 98 -3 3 -92 3 -93 -101 0 -101 0 3 -97 3 -98 95 0 95 0 3
98 3 98 92 -3 92 -3 3 -192 2 -193 95 0 95 0 0 -95 0 -95 -95 0 -95 0 0 -290
0 -290 95 0 95 0 0 -95 0 -95 -95 0 -95 0 0 -95 0 -95 95 0 95 0 0 -100 0
-100 -190 0 -190 0 0 195 0 195 -100 0 -100 0 0 95 0 95 -190 0 -190 0 0 95 0
95 95 0 95 0 0 100 0 100 95 0 95 0 0 95 0 95 -95 0 -95 0 0 95 0 95 -95 0
-95 0 0 -95 0 -95 -97 0 -98 0 3 95 3 95 -100 0 -101 0 0 -95 0 -95 -95 0 -95
0 0 95 0 95 -95 0 -95 0 0 -95 0 -95 95 0 95 0 0 -95 0 -95 -190 0 -190 0 0
-100 0 -100 190 0 190 0 0 100 0 100 290 0 290 -1 0 -99 0 -100 -95 0 -94 0
-3 -197 c-2 -109 -2 -237 0 -285 l3 -88 94 0 95 0 0 -100 0 -100 -95 0 -95 0
0 -95 0 -95 95 0 95 0 0 -95 0 -95 190 0 190 0 0 -195 0 -195 -95 0 -95 0 0
100 0 100 -95 0 -95 0 0 -100 0 -100 -95 0 -95 0 0 -95 0 -95 95 0 95 0 0 -95
0 -95 95 0 95 0 0 95 0 95 95 0 95 0 0 -95 0 -95 100 0 100 0 0 -95 0 -94 -97
-3 -98 -3 0 -95 0 -95 193 -3 192 -2 0 -95 0 -95 95 0 95 0 0 -95 0 -95 95 0
96 0 -3 -96 -3 -97 -92 2 -93 2 0 -195 0 -196 -290 0 -290 0 0 -95 0 -95 195
0 195 0 0 -195 0 -195 190 0 190 0 0 86 c0 112 4 116 112 112 l83 -3 5 -95 5
-95 93 -3 92 -3 0 101 0 100 95 0 94 0 3 93 3 92 92 3 92 3 3 -88 c2 -48 2
-136 0 -195 l-3 -108 -95 0 -94 0 0 -190 0 -190 290 0 289 0 3 93 3 92 93 3
92 3 0 194 0 195 196 0 195 0 -1 103 c-1 56 -1 141 -1 190 l1 87 190 0 190 0
0 95 c0 83 2 95 18 96 26 2 167 -2 169 -5 2 -2 4 -275 3 -463 l0 -103 -190 0
-191 0 3 -97 3 -98 93 0 92 0 0 -97 0 -98 -95 0 -95 0 0 94 0 95 -96 3 c-52 2
-140 2 -195 0 l-100 -3 3 -92 3 -92 95 -5 95 -5 3 -92 3 -93 669 0 670 0 0 95
0 96 98 -3 97 -3 3 -92 3 -93 94 0 95 0 0 190 0 189 -92 3 -93 3 -5 200 c-3
110 -3 238 0 285 l5 85 93 3 92 3 0 94 0 94 -92 3 -93 3 -3 75 c-5 129 -21
120 193 120 l184 0 3 -98 3 -97 190 0 190 0 3 193 2 192 -100 0 -100 0 0 83
c0 51 5 88 12 95 8 8 45 12 100 12 l88 0 0 290 0 290 -100 0 -100 0 0 89 c0
72 3 90 16 95 9 3 54 6 100 6 l84 0 0 385 -1 385 -195 0 -194 0 0 -95 0 -95
-95 0 -95 0 0 95 0 95 -95 0 -95 0 -1 -192 c0 -106 -1 -236 -2 -288 l-2 -95
-97 -3 -98 -3 0 101 0 100 -95 0 -95 0 0 83 c0 51 5 88 12 95 7 7 44 12 95 12
l82 0 3 91 c2 50 2 135 0 190 l-3 99 -95 0 -94 0 0 284 c0 250 2 285 16 290 9
3 51 6 95 6 l79 0 0 95 0 95 101 0 100 0 -1 83 c-1 45 -1 90 -1 100 1 15 12
17 96 17 l95 0 0 -100 0 -100 95 0 95 0 0 100 0 100 95 0 c84 0 95 -2 95 -17
1 -10 0 -98 0 -195 l-1 -178 101 0 100 0 0 290 0 290 -100 0 -100 0 0 95 0 95
-95 0 -95 0 0 -190 0 -190 -95 0 -95 0 0 95 0 95 -95 0 -95 0 0 95 0 95 -100
0 -100 0 0 -95 0 -95 100 0 100 0 0 -95 0 -94 -97 -3 -98 -3 -3 -97 -3 -97
-189 -1 -190 0 0 88 c0 55 4 92 12 100 7 7 44 12 95 12 l83 0 0 95 0 95 -189
0 -190 0 -3 -102 c-2 -56 -2 -144 0 -195 l3 -93 94 0 95 0 0 -95 0 -95 -195 0
-195 0 0 95 0 95 -95 0 -95 0 0 -95 0 -95 -95 0 -95 0 0 95 0 94 -92 3 c-51 2
-139 2 -195 0 l-104 -3 3 -190 3 -189 -97 0 c-54 0 -98 -3 -98 -7 0 -5 36 -44
80 -87 44 -43 80 -83 80 -87 0 -5 52 -9 115 -9 l114 0 3 93 3 92 93 3 92 3 0
-96 0 -95 95 0 95 0 0 190 0 191 98 -3 c53 -2 96 -6 95 -10 -2 -5 -3 -307 -3
-673 l0 -665 -287 1 c-159 0 -332 0 -385 0 l-98 -1 0 -190 0 -190 -95 0 -95 0
0 -95 0 -95 193 -2 192 -3 2 -295 c1 -162 2 -334 3 -382 l0 -88 190 0 190 0 0
-100 0 -100 -190 0 -190 0 0 -95 0 -95 -100 0 -100 0 0 95 0 95 -95 0 -95 0 0
-95 0 -95 94 0 95 0 3 -95 3 -95 -97 0 -98 0 0 -95 0 -95 -192 0 -193 0 2 81
c1 44 4 87 7 95 4 11 27 14 96 14 l90 0 0 190 0 190 -95 0 -95 0 2 193 3 192
92 3 92 3 3 92 3 92 93 3 92 3 0 -96 0 -95 95 0 95 0 1 93 c1 137 -2 281 -5
285 -2 1 -86 3 -187 5 l-184 2 -3 98 -3 97 -94 0 -95 0 0 95 0 95 -100 0 -101
0 1 -177 c0 -98 1 -359 0 -581 l0 -402 -187 2 -188 3 -3 193 -2 192 95 0 95 0
0 95 0 95 -95 0 -95 0 0 -95 0 -95 -195 0 -195 0 0 95 0 94 98 3 97 3 3 93 3
92 -101 0 -100 0 0 86 c0 110 4 114 114 114 l85 0 3 93 3 92 93 3 92 3 0 -96
0 -95 95 0 95 0 0 95 0 95 -95 0 -95 0 0 89 c0 50 4 92 9 95 5 3 -37 52 -92
109 -66 67 -106 100 -114 94 -6 -4 -51 -7 -100 -5 l-88 3 -3 98 -3 97 57 0
c49 0 55 2 49 18 -23 59 -45 194 -45 272 l0 90 -30 0 -30 0 0 89 c0 99 2 101
70 101 l39 0 46 93 c25 51 53 100 63 109 9 8 55 54 101 102 46 47 86 86 90 86
3 0 43 19 88 42 l83 42 0 148 0 148 -95 0 -95 0 0 385 0 385 95 0 95 0 0 -190
0 -190 95 0 c84 0 95 -2 95 -17 1 -10 2 -153 3 -318 l2 -300 95 0 c92 0 94 1
100 25 l6 25 187 3 187 2 0 195 0 195 -95 0 -95 0 0 -100 0 -100 -95 0 -95 0
-1 83 c-1 207 3 481 7 489 3 4 131 8 285 8 l279 0 0 95 0 95 101 0 100 0 -1
-197 c-1 -109 -1 -237 -1 -285 l1 -88 95 0 95 0 2 188 3 187 188 3 187 2 0 95
0 94 98 3 97 3 3 193 2 192 -100 0 -100 0 0 95 0 95 -95 0 -95 0 0 95 0 95
-95 0 -95 0 0 -190 0 -190 95 0 95 0 0 -95 0 -94 -92 -3 -93 -3 -3 -97 -3 -98
-94 0 -95 0 -2 193 -3 192 -97 3 -98 3 0 183 c0 213 -9 197 115 199 l80 2 3
98 3 97 94 0 94 0 3 93 3 92 93 3 92 3 0 -95 0 -95 102 -3 c56 -2 144 -2 195
0 l93 3 0 94 0 95 -100 0 -100 0 0 95 0 95 -480 0 -480 0 0 -95 0 -95 -95 0
-95 0 0 -95 0 -95 95 0 95 0 0 -100 0 -100 -190 0 -190 0 -1 83 c0 45 -1 132
-2 192 l-2 110 -97 3 -98 3 0 94 0 95 -190 0 -190 0 0 -95z m1348 -192 l3 -93
-101 0 -100 0 0 83 c0 53 5 88 12 95 9 9 40 12 98 10 l85 -3 3 -92z m-768
-388 l0 -95 95 0 95 0 0 -95 0 -95 -290 0 -291 0 3 93 3 92 93 3 92 3 0 89 c0
61 4 90 13 93 6 3 51 6 100 6 l87 1 0 -95z m-970 -575 l0 -100 100 0 101 0 -3
-92 -3 -93 -97 -3 -98 -3 0 95 0 95 -92 3 -93 3 -3 83 c-2 53 1 89 9 98 8 10
36 14 95 14 l84 0 0 -100z m1160 0 l0 -100 -95 0 -95 0 0 84 c0 46 3 91 6 100
5 13 23 16 95 16 l89 0 0 -100z m380 0 l0 -100 -79 0 c-114 0 -111 -2 -111 94
0 50 5 87 12 94 7 7 44 12 95 12 l83 0 0 -100z m772 9 c2 -50 0 -95 -3 -100
-3 -6 -46 -9 -95 -7 l-89 3 -3 98 -3 97 95 0 95 0 3 -91z m-3272 -584 l0 -95
-95 0 -95 0 0 95 0 95 95 0 95 0 0 -95z m962 -17 c2 -62 2 -193 0 -290 l-3
-178 -94 0 -95 0 0 290 0 290 95 0 94 0 3 -112z m388 -563 l0 -95 -97 0 -98 0
3 82 c1 46 5 89 7 96 3 8 31 12 95 12 l90 0 0 -95z m-1350 -190 l0 -95 95 0
95 0 0 -195 0 -195 -190 0 -190 0 0 95 0 95 95 0 95 0 0 101 0 100 -77 -1
c-43 -1 -86 -1 -95 -1 -16 1 -18 12 -18 89 0 49 3 92 7 95 3 4 46 7 95 7 l88
0 0 -95z m960 0 l0 -95 -95 0 -95 0 0 95 0 95 95 0 95 0 0 -95z m2700 -195 l0
-100 95 0 95 0 0 -95 0 -95 -190 0 -190 0 0 179 c0 99 3 186 6 195 5 13 23 16
95 16 l89 0 0 -100z m-3080 -385 l0 -95 -95 0 -95 0 0 88 c0 49 3 92 7 95 3 4
46 7 95 7 l88 0 0 -95z m380 -95 l0 -189 -92 -3 -93 -3 -3 -97 -3 -98 -94 0
-95 0 0 -190 0 -190 -95 0 -95 0 0 274 c0 151 3 281 6 290 5 14 32 16 190 16
l184 0 0 184 c0 138 3 186 13 189 6 3 49 6 95 6 l82 1 0 -190z m2700 -95 l0
-95 95 0 95 0 0 -100 0 -100 95 0 94 0 3 -92 3 -93 98 -3 99 -3 -2 -102 c-1
-56 -1 -141 -1 -189 l1 -88 95 0 95 0 2 283 3 282 93 3 92 3 0 -191 0 -190 95
0 95 0 0 -95 0 -95 -190 0 -190 0 0 -100 0 -100 95 0 95 0 0 -190 0 -190 -190
0 -190 0 0 290 0 290 -195 0 -196 0 3 -97 3 -98 93 -3 92 -3 0 -94 0 -95 -285
0 -285 0 0 195 0 196 -97 -3 -98 -3 -3 -192 -2 -193 -95 0 -95 0 0 290 0 290
-95 0 -96 0 3 93 3 92 188 3 187 2 0 95 0 95 100 0 100 0 0 179 c0 99 3 186 6
195 5 13 23 16 95 16 l89 0 0 -95z m-3660 -390 l0 -95 -95 0 -95 0 0 95 0 95
95 0 95 0 0 -95z m960 -771 l0 -94 -95 0 -95 0 0 88 c0 48 4 92 9 98 6 5 48 8
95 6 l86 -3 0 -95z m2310 -379 l0 -95 -95 0 -95 0 0 83 c0 51 5 88 12 95 7 7
44 12 95 12 l83 0 0 -95z m772 -22 c2 -65 2 -196 0 -290 l-3 -173 -284 0 -285
0 0 283 c0 156 3 287 7 290 3 4 131 7 284 7 l278 0 3 -117z m-2884 -465 l2
-188 95 0 95 0 0 -95 0 -95 -95 0 -95 0 0 95 0 95 -100 0 -99 0 0 184 c0 136
3 186 12 190 6 2 50 4 97 3 l85 -2 3 -187z m772 97 l0 -95 -100 0 -100 0 0 95
0 95 100 0 100 0 0 -95z m1920 -380 l0 -95 95 0 95 0 0 -195 0 -195 -190 0
-190 0 0 283 c0 156 3 287 7 290 3 4 46 7 95 7 l88 0 0 -95z m-385 -118 c3
-12 5 -56 3 -97 l-3 -75 -75 -3 c-123 -5 -120 -8 -120 103 l0 95 95 0 c90 0
95 -1 100 -23z"/>
<path d="M7040 14845 l0 -95 -100 0 -100 0 0 -95 0 -94 98 -3 97 -3 3 -92 3
-93 189 0 190 0 0 83 c0 51 5 88 12 95 7 7 44 12 95 12 l83 0 0 95 0 95 -190
0 -190 0 0 95 0 95 -95 0 -95 0 0 -95z"/>
<path d="M7230 13500 l0 -100 95 0 95 0 0 100 0 100 -95 0 -95 0 0 -100z"/>
<path d="M7230 17925 l0 -675 673 2 672 3 3 673 2 672 -675 0 -675 0 0 -675z
m1152 5 l3 -480 -483 -2 -482 -3 0 483 0 482 480 0 480 0 2 -480z"/>
<path d="M7615 18207 c-3 -7 -4 -136 -3 -287 l3 -275 288 -3 287 -2 0 290 0
290 -285 0 c-221 0 -287 -3 -290 -13z"/>
<path d="M2220 16965 l0 -95 100 0 100 0 0 95 0 95 -100 0 -100 0 0 -95z"/>
<path d="M2420 16195 l0 -95 -100 0 -100 0 0 -95 0 -94 98 -3 97 -3 2 -192 3
-193 -100 0 -100 0 0 -95 0 -95 100 0 100 0 0 95 0 95 95 0 95 0 0 -190 0
-190 -192 -2 -193 -3 0 -95 0 -95 288 -3 287 -2 0 -95 0 -95 -95 0 -95 0 0
-95 0 -95 95 0 95 0 0 -95 0 -95 195 0 195 0 -3 188 -2 187 -97 3 -98 3 0 94
0 95 -95 0 -95 0 0 88 c0 55 4 92 12 100 7 7 44 12 95 12 l83 0 0 190 0 190
-95 0 -96 0 3 93 3 92 93 3 92 3 0 99 0 100 -95 0 -95 0 0 83 c0 51 5 88 12
95 7 7 44 12 95 12 l83 0 0 95 0 95 -285 0 -285 0 0 -95z"/>
<path d="M8380 16005 l0 -95 -95 0 -95 0 0 -100 0 -100 193 2 192 3 3 193 2
192 -100 0 -100 0 0 -95z"/>
<path d="M5650 15719 c-15 -9 -37 -31 -49 -47 l-21 -30 39 -29 c88 -63 87
-103 -13 -273 -42 -71 -76 -132 -76 -135 0 -13 68 -45 97 -45 49 0 84 38 168
185 90 157 101 201 68 277 -15 32 -35 54 -76 81 -60 40 -91 44 -137 16z"/>
<path d="M5068 15697 c-24 -23 -34 -38 -80 -125 -15 -30 -37 -66 -48 -82 -24
-33 -26 -50 -5 -50 9 0 15 -9 15 -24 0 -13 3 -31 6 -40 3 -9 1 -16 -5 -16 -6
0 -11 13 -11 29 0 27 -20 47 -34 34 -10 -10 -7 -131 3 -137 5 -4 12 0 15 6 3
7 4 0 1 -15 -4 -19 1 -36 15 -55 23 -28 187 -142 206 -142 8 0 7 12 -3 41 -17
51 -8 124 17 142 10 7 33 40 51 72 17 33 36 66 42 73 12 15 37 61 67 121 14
28 19 52 15 68 -10 40 -58 81 -109 94 -25 6 -49 15 -52 20 -11 19 -82 9 -106
-14z m32 -1 c0 -3 -4 -8 -10 -11 -5 -3 -10 -1 -10 4 0 6 5 11 10 11 6 0 10 -2
10 -4z m-60 -90 c0 -3 -4 -8 -10 -11 -5 -3 -10 -1 -10 4 0 6 5 11 10 11 6 0
10 -2 10 -4z m-3 -48 c-3 -8 -6 -5 -6 6 -1 11 2 17 5 13 3 -3 4 -12 1 -19z
m-21 -5 c-4 -9 -2 -19 4 -23 6 -4 -3 -7 -20 -7 -17 0 -27 3 -22 6 5 3 11 14
15 24 3 9 11 17 18 17 6 0 8 -7 5 -17z m-59 -72 c-3 -14 0 -17 14 -14 21 6 27
-23 7 -29 -20 -7 -40 20 -33 42 8 25 19 26 12 1z m-35 -130 c2 -22 0 -37 -4
-35 -8 5 -11 74 -4 74 2 0 6 -18 8 -39z m38 -10 c0 -6 -4 -13 -10 -16 -5 -3
-10 1 -10 9 0 9 5 16 10 16 6 0 10 -4 10 -9z m-10 -91 c0 -5 -2 -10 -4 -10 -3
0 -8 5 -11 10 -3 6 -1 10 4 10 6 0 11 -4 11 -10z"/>
<path d="M6268 15611 c-2 -55 -2 -140 0 -190 l3 -91 94 0 95 0 0 -95 0 -95 95
0 95 0 0 95 0 95 -95 0 -96 0 3 93 3 92 93 3 92 3 0 94 0 95 -189 0 -190 0 -3
-99z"/>
<path d="M5865 14760 c-3 -5 -1 -10 4 -10 6 0 11 5 11 10 0 6 -2 10 -4 10 -3
0 -8 -4 -11 -10z"/>
<path d="M2220 14655 l0 -95 100 0 100 0 0 95 0 95 -100 0 -100 0 0 -95z"/>
<path d="M2224 14357 c-2 -8 -4 -52 -2 -98 l3 -84 98 -3 97 -3 0 -94 0 -95
-100 0 -100 0 0 -95 0 -95 100 0 100 0 0 95 0 95 190 0 190 0 0 -95 0 -95 385
0 385 0 0 95 0 95 -95 0 -95 0 0 95 c0 84 2 95 18 96 9 0 52 0 95 -1 l77 -1 0
100 0 101 -95 0 -95 0 0 -100 0 -100 -95 0 -95 0 0 -95 0 -95 -100 0 -100 0 0
95 0 95 -92 0 c-51 1 -179 0 -285 0 l-192 -1 -3 98 -3 98 -93 3 c-71 2 -94 0
-98 -11z"/>
<path d="M3760 13790 l0 -190 100 0 100 0 0 190 0 190 -100 0 -100 0 0 -190z"/>
<path d="M2227 13593 c-4 -3 -7 -307 -7 -675 l0 -668 675 0 675 0 0 675 0 675
-668 0 c-368 0 -672 -3 -675 -7z m1153 -673 l0 -480 -478 0 c-263 0 -481 2
-483 4 -2 2 -3 220 -1 483 l2 478 480 -3 480 -2 0 -480z"/>
<path d="M2612 12923 l3 -288 285 0 285 0 3 288 2 287 -290 0 -290 0 2 -287z"/>
<path d="M8380 12920 l0 -290 -95 0 -95 0 0 -190 0 -190 195 0 195 0 0 95 0
95 -100 0 -100 0 0 95 0 95 100 0 100 0 0 290 0 290 -100 0 -100 0 0 -290z"/>
<path d="M8000 12925 l0 -95 95 0 95 0 0 95 0 95 -95 0 -95 0 0 -95z"/>
<path d="M3767 12824 c-4 -4 -7 -49 -7 -101 l0 -93 100 0 101 0 -3 98 -3 97
-90 3 c-50 1 -94 0 -98 -4z"/>
<path d="M3761 12345 l2 -95 481 2 481 3 0 90 0 90 -483 3 -483 2 2 -95z"/>
<path d="M5344 11769 c-8 -14 11 -33 25 -25 11 7 4 36 -9 36 -5 0 -12 -5 -16
-11z"/>
<path d="M5550 11650 c0 -80 4 -130 10 -130 6 0 10 26 10 58 0 44 5 63 18 75
44 40 72 13 72 -70 0 -49 3 -63 15 -63 19 0 21 103 2 140 -14 28 -68 40 -93
19 -12 -10 -14 -3 -14 45 0 31 -4 56 -10 56 -6 0 -10 -50 -10 -130z"/>
<path d="M3230 11740 c-41 -41 -18 -80 62 -110 32 -12 44 -22 46 -40 8 -49
-63 -68 -96 -25 -24 30 -32 31 -32 6 0 -48 101 -70 140 -31 42 42 17 91 -63
120 -44 16 -57 41 -37 65 18 21 57 18 77 -5 20 -23 33 -26 33 -7 0 45 -93 64
-130 27z"/>
<path d="M6450 11666 c0 -79 3 -97 21 -120 16 -21 29 -26 64 -26 35 0 48 5 64
26 18 23 21 41 21 120 0 52 -4 94 -9 94 -5 0 -11 -43 -13 -96 -3 -102 -14
-124 -63 -124 -49 0 -60 22 -63 124 -2 53 -8 96 -13 96 -5 0 -9 -42 -9 -94z"/>
<path d="M6680 11640 c0 -100 3 -120 15 -120 11 0 15 12 15 44 l0 43 50 7 c55
7 80 32 80 77 0 42 -41 69 -106 69 l-54 0 0 -120z m124 80 c13 -13 10 -61 -5
-71 -8 -5 -31 -9 -51 -9 l-38 0 0 49 0 48 43 -4 c23 -2 46 -8 51 -13z"/>
<path d="M6880 11640 c0 -100 3 -120 15 -120 13 0 15 20 15 120 0 100 -2 120
-15 120 -12 0 -15 -20 -15 -120z"/>
<path d="M4070 11715 c0 -16 -6 -25 -15 -25 -8 0 -15 -4 -15 -10 0 -5 7 -10
15 -10 12 0 15 -13 15 -59 0 -63 17 -95 48 -89 24 5 27 28 3 28 -19 0 -21 6
-21 60 0 53 2 60 20 60 11 0 20 5 20 10 0 6 -9 10 -20 10 -15 0 -20 7 -20 25
0 16 -6 25 -15 25 -9 0 -15 -9 -15 -25z"/>
<path d="M5440 11715 c0 -16 -6 -25 -15 -25 -8 0 -15 -4 -15 -9 0 -5 7 -11 15
-15 11 -4 15 -21 15 -64 0 -32 5 -63 12 -70 18 -18 48 -15 48 5 0 9 -3 13 -7
10 -15 -16 -33 18 -33 65 0 41 3 51 20 55 11 3 20 9 20 14 0 5 -9 9 -20 9 -15
0 -20 7 -20 25 0 14 -4 25 -10 25 -5 0 -10 -11 -10 -25z"/>
<path d="M3430 11668 c-27 -30 -28 -100 0 -128 34 -34 120 -19 120 21 0 14
-16 11 -30 -6 -18 -22 -57 -18 -74 7 -44 62 21 141 75 92 28 -25 47 -12 21 14
-29 29 -84 29 -112 0z"/>
<path d="M3605 11670 c-16 -17 -16 -20 -2 -20 9 0 19 5 22 10 11 18 64 11 75
-9 15 -29 14 -31 -34 -31 -27 0 -51 -6 -60 -16 -19 -18 -21 -55 -4 -72 16 -16
70 -15 87 1 11 10 14 10 18 0 12 -33 23 -6 23 55 0 54 -4 72 -18 85 -26 24
-85 22 -107 -3z m95 -88 c0 -39 -55 -57 -80 -27 -19 22 5 45 46 45 26 0 34 -4
34 -18z"/>
<path d="M3780 11605 c0 -69 3 -85 15 -85 12 0 15 14 15 63 0 68 10 87 47 87
30 0 43 -28 43 -94 0 -31 5 -56 10 -56 17 0 12 136 -6 154 -18 19 -65 21 -82
4 -9 -9 -12 -9 -12 0 0 7 -7 12 -15 12 -12 0 -15 -16 -15 -85z"/>
<path d="M4190 11670 c-11 -11 -22 -31 -26 -45 -8 -31 12 -82 37 -95 25 -14
72 -12 92 3 38 27 38 117 0 144 -26 20 -80 16 -103 -7z m92 -17 c22 -20 23
-70 1 -95 -35 -39 -93 -9 -93 48 0 57 52 84 92 47z"/>
<path d="M4460 11570 c0 -73 4 -120 10 -120 6 0 10 21 10 47 0 37 3 44 12 35
19 -19 76 -14 98 8 28 28 27 98 0 128 -22 24 -59 28 -91 12 -13 -7 -19 -7 -19
0 0 5 -4 10 -10 10 -6 0 -10 -47 -10 -120z m114 78 c44 -63 -21 -141 -76 -91
-10 9 -18 30 -18 46 0 60 63 90 94 45z"/>
<path d="M4670 11675 c-16 -19 -5 -34 12 -17 15 15 61 15 76 0 24 -24 13 -38
-31 -38 -54 0 -83 -26 -73 -64 8 -31 47 -44 88 -28 16 6 28 6 28 1 0 -5 5 -9
10 -9 17 0 12 136 -6 154 -20 21 -88 21 -104 1z m94 -83 c10 -16 -25 -52 -50
-52 -26 0 -40 20 -30 45 6 16 71 21 80 7z"/>
<path d="M4830 11668 c53 -134 56 -145 49 -166 -8 -20 -20 -27 -41 -23 -5 0
-8 -6 -8 -14 0 -21 34 -19 52 3 8 9 33 63 56 120 29 73 37 102 27 102 -8 0
-24 -26 -36 -60 -12 -33 -25 -60 -29 -60 -4 0 -17 27 -29 60 -13 35 -28 60
-36 60 -11 0 -12 -5 -5 -22z"/>
<path d="M5086 11665 c20 -81 43 -140 55 -140 7 0 21 28 32 65 l20 65 22 -64
c11 -36 26 -66 33 -69 10 -3 66 157 57 166 -11 11 -25 -14 -36 -63 -7 -30 -15
-55 -19 -55 -4 0 -15 27 -24 60 -10 36 -23 60 -31 60 -12 0 -45 -87 -45 -120
0 -31 -19 6 -30 60 -8 38 -18 60 -27 60 -9 0 -12 -7 -7 -25z"/>
<path d="M5350 11605 c0 -50 4 -85 10 -85 6 0 10 35 10 85 0 50 -4 85 -10 85
-6 0 -10 -35 -10 -85z"/>
<path d="M5840 11675 c-16 -19 -5 -34 12 -17 20 20 66 14 78 -9 15 -27 7 -34
-39 -30 -25 1 -44 -3 -55 -14 -19 -19 -21 -56 -4 -73 16 -16 70 -15 87 1 11
10 14 10 18 0 12 -32 23 -7 23 50 0 81 -17 107 -69 107 -22 0 -44 -6 -51 -15z
m90 -93 c0 -39 -55 -57 -80 -27 -19 22 5 45 46 45 26 0 34 -4 34 -18z"/>
<path d="M6010 11605 c0 -70 3 -85 15 -85 13 0 15 12 14 60 -2 68 12 92 50 88
25 -3 26 -6 29 -75 2 -56 6 -73 17 -73 21 0 21 118 -1 148 -16 24 -53 29 -85
12 -13 -7 -19 -7 -19 0 0 5 -4 10 -10 10 -6 0 -10 -35 -10 -85z"/>
<path d="M6180 11685 c0 -2 14 -39 31 -82 34 -87 33 -119 -7 -129 -16 -4 -22
-10 -16 -16 15 -15 47 -1 60 25 26 52 83 199 78 204 -11 11 -24 -9 -47 -68
-18 -51 -24 -59 -31 -43 -4 10 -17 40 -27 67 -11 26 -25 47 -31 47 -5 0 -10
-2 -10 -5z"/>
<path d="M7065 11674 c-22 -22 -11 -30 19 -14 35 18 76 6 76 -23 0 -20 -4 -23
-34 -19 -47 5 -76 -12 -76 -46 0 -36 17 -52 55 -52 17 0 36 5 43 12 9 9 12 9
12 0 0 -7 7 -12 15 -12 21 0 21 117 -1 148 -19 27 -84 31 -109 6z m91 -89 c9
-23 -15 -45 -47 -45 -32 0 -51 36 -28 51 23 14 69 10 75 -6z"/>
<path d="M7240 11570 c0 -73 4 -120 10 -120 6 0 10 20 10 44 l0 44 28 -10 c60
-23 104 10 104 77 0 67 -44 100 -104 77 -16 -6 -28 -6 -28 -1 0 5 -4 9 -10 9
-6 0 -10 -47 -10 -120z m114 84 c36 -36 8 -114 -40 -114 -26 0 -54 34 -54 65
0 53 59 84 94 49z"/>
<path d="M7440 11570 c0 -73 4 -120 10 -120 6 0 10 21 10 47 0 37 3 44 12 35
7 -7 27 -12 45 -12 45 0 73 32 73 85 0 69 -54 105 -111 75 -13 -7 -19 -7 -19
0 0 5 -4 10 -10 10 -6 0 -10 -47 -10 -120z m114 78 c44 -63 -21 -141 -76 -91
-10 9 -18 30 -18 46 0 60 63 90 94 45z"/>
<path d="M4407 10464 c-4 -4 -7 -16 -7 -26 0 -14 6 -19 23 -16 14 2 22 10 22
23 0 20 -25 32 -38 19z"/>
<path d="M4720 10320 c0 -143 1 -150 20 -150 12 0 20 7 20 16 0 14 1 14 16 0
24 -25 81 -20 109 9 36 35 36 115 0 150 -26 27 -72 33 -106 15 -18 -10 -19 -7
-19 50 0 53 -2 60 -20 60 -19 0 -20 -7 -20 -150z m130 2 c28 -23 30 -75 4
-103 -21 -23 -42 -24 -72 -3 -29 20 -30 76 -2 104 25 25 41 25 70 2z"/>
<path d="M5701 10456 c-16 -19 -6 -36 20 -36 15 0 20 6 17 22 -4 27 -21 33
-37 14z"/>
<path d="M6470 10320 c0 -142 1 -150 19 -150 19 0 20 8 20 150 0 142 -1 150
-20 150 -18 0 -19 -8 -19 -150z"/>
<path d="M7360 10320 c0 -143 1 -150 20 -150 16 0 20 7 20 34 0 18 7 39 15 46
12 10 19 4 42 -34 20 -33 34 -45 52 -46 23 0 23 0 6 27 -10 14 -27 42 -38 60
l-20 34 39 40 c36 37 37 39 14 39 -15 0 -41 -16 -67 -42 l-43 -42 0 92 c0 85
-1 92 -20 92 -19 0 -20 -7 -20 -150z"/>
<path d="M3720 10310 c0 -133 1 -140 20 -140 17 0 20 7 20 50 l0 50 40 0 c46
0 95 21 104 45 3 9 6 29 6 45 0 65 -36 90 -130 90 l-60 0 0 -140z m138 88 c7
-7 12 -24 12 -38 0 -37 -18 -50 -67 -50 l-43 0 0 50 0 50 43 0 c24 0 48 -5 55
-12z"/>
<path d="M5060 10310 c0 -133 1 -140 20 -140 18 0 20 8 22 107 l3 107 63 -107
c46 -77 69 -107 83 -107 18 0 19 9 19 140 0 135 -1 140 -21 140 -19 0 -20 -5
-19 -92 1 -51 1 -97 1 -102 -1 -5 -28 36 -62 92 -50 84 -65 102 -85 102 l-24
0 0 -140z"/>
<path d="M6670 10311 l0 -141 69 0 c59 0 74 4 97 23 34 30 37 79 6 109 -19 20
-20 23 -5 33 21 16 21 71 -1 93 -11 12 -38 18 -91 20 l-75 4 0 -141z m140 84
c6 -8 9 -23 5 -35 -5 -17 -15 -20 -56 -20 l-49 0 0 35 c0 35 0 35 44 35 26 0
48 -6 56 -15z m11 -119 c19 -42 -3 -66 -61 -66 l-50 0 0 45 0 45 50 0 c43 0
52 -3 61 -24z"/>
<path d="M7692 10422 c-18 -15 -32 -35 -32 -46 0 -17 1 -17 25 -2 13 9 27 16
30 16 3 0 5 -49 5 -110 0 -103 1 -110 20 -110 19 0 20 7 20 140 0 127 -2 140
-17 140 -10 0 -33 -13 -51 -28z"/>
<path d="M7852 10443 c-17 -7 -42 -57 -42 -85 1 -59 86 -101 124 -62 9 8 16
13 16 9 0 -17 -25 -53 -57 -81 -28 -25 -32 -32 -21 -42 19 -15 72 27 98 79 34
65 19 166 -25 183 -19 7 -74 7 -93 -1z m82 -42 c38 -42 -13 -108 -59 -77 -26
17 -31 59 -10 80 22 21 48 20 69 -3z"/>
<path d="M8055 10428 c-2 -13 -6 -45 -7 -73 l-3 -50 48 3 c27 2 55 -2 63 -9
21 -18 18 -76 -5 -89 -29 -15 -40 -13 -65 15 -30 32 -62 25 -44 -8 18 -34 40
-46 81 -47 100 -1 124 154 28 175 -17 3 -39 1 -50 -5 -19 -9 -21 -8 -21 14 0
49 9 56 66 56 47 0 54 2 54 20 0 18 -7 20 -70 20 -64 0 -70 -2 -75 -22z"/>
<path d="M8250 10430 c0 -18 7 -20 61 -20 l60 0 -19 -27 c-27 -40 -50 -104
-58 -162 -6 -47 -5 -51 14 -51 17 0 21 9 27 53 8 57 33 122 65 166 38 54 30
61 -65 61 -78 0 -85 -2 -85 -20z"/>
<path d="M5560 10400 c0 -20 -5 -30 -15 -30 -19 0 -20 -26 -1 -37 8 -5 15 -32
18 -72 5 -68 23 -95 63 -89 29 4 32 36 3 40 -21 3 -23 8 -23 63 0 56 2 60 23
59 15 0 22 5 22 18 0 13 -7 18 -25 18 -21 0 -25 5 -25 30 0 23 -4 30 -20 30
-16 0 -20 -7 -20 -30z"/>
<path d="M3950 10292 c0 -97 14 -122 69 -122 20 0 42 5 49 12 9 9 12 9 12 0 0
-7 9 -12 20 -12 19 0 20 7 20 100 0 93 -1 100 -20 100 -18 0 -20 -7 -20 -68 0
-71 -16 -102 -51 -102 -30 0 -39 24 -39 97 0 66 -2 73 -20 73 -18 0 -20 -7
-20 -78z"/>
<path d="M4180 10270 c0 -93 1 -100 20 -100 18 0 20 7 20 69 0 73 14 101 49
101 32 0 41 -22 41 -97 0 -66 2 -73 20 -73 18 0 20 7 20 78 0 92 -15 122 -61
122 -17 0 -39 -5 -50 -10 -13 -7 -19 -7 -19 0 0 5 -9 10 -20 10 -19 0 -20 -7
-20 -100z"/>
<path d="M4400 10250 c0 -100 -2 -120 -15 -120 -8 0 -15 -9 -15 -20 0 -24 32
-27 54 -4 13 12 16 40 16 140 0 117 -1 124 -20 124 -19 0 -20 -7 -20 -120z"/>
<path d="M4515 10350 c-14 -16 -16 -23 -7 -32 9 -9 16 -7 30 5 26 24 69 22 82
-4 15 -27 7 -34 -33 -31 -75 7 -117 -41 -83 -93 13 -19 25 -25 54 -25 21 0 44
6 51 13 11 10 14 10 18 0 3 -7 11 -13 19 -13 11 0 14 18 14 84 0 76 -2 86 -22
100 -33 23 -101 21 -123 -4z m109 -98 c11 -18 -25 -52 -55 -52 -31 0 -46 19
-35 45 6 16 81 22 90 7z"/>
<path d="M5349 10350 c-20 -16 -22 -21 -9 -29 10 -7 19 -6 31 5 32 29 89 12
89 -27 0 -14 -7 -16 -40 -12 -70 10 -118 -42 -86 -92 13 -19 25 -25 54 -25 21
0 44 6 51 13 11 10 14 10 18 0 3 -7 14 -13 25 -13 19 0 20 5 16 82 -4 69 -8
84 -28 100 -30 24 -91 24 -121 -2z m106 -101 c10 -15 -25 -49 -50 -49 -32 0
-51 25 -35 45 14 17 76 20 85 4z"/>
<path d="M5700 10270 c0 -93 1 -100 20 -100 19 0 20 7 20 100 0 93 -1 100 -20
100 -19 0 -20 -7 -20 -100z"/>
<path d="M5815 10346 c-47 -47 -39 -137 14 -166 35 -18 88 -12 118 14 24 21
28 32 28 76 0 44 -4 55 -28 76 -38 33 -99 33 -132 0z m105 -26 c39 -39 12
-120 -40 -120 -29 0 -60 36 -60 70 0 34 31 70 60 70 11 0 29 -9 40 -20z"/>
<path d="M6020 10270 c0 -93 1 -100 20 -100 18 0 20 7 20 68 0 71 16 102 51
102 30 0 39 -24 39 -97 0 -66 2 -73 20 -73 18 0 20 7 20 83 0 69 -3 87 -18
100 -21 19 -64 22 -93 7 -13 -7 -19 -7 -19 0 0 5 -9 10 -20 10 -19 0 -20 -7
-20 -100z"/>
<path d="M6268 10356 c-22 -16 -23 -32 -3 -40 8 -3 15 -1 15 4 0 13 44 23 69
15 13 -4 21 -15 21 -28 0 -20 -5 -22 -49 -22 -56 0 -81 -17 -81 -55 0 -50 60
-77 111 -50 13 7 19 7 19 0 0 -5 9 -10 20 -10 18 0 20 7 20 80 0 67 -3 83 -20
100 -23 23 -95 27 -122 6z m102 -114 c0 -26 -20 -42 -52 -42 -30 0 -44 19 -34
45 3 10 19 15 46 15 32 0 40 -4 40 -18z"/>
<path d="M6929 10349 c-20 -20 -20 -23 -5 -31 11 -6 21 -4 32 6 30 30 84 14
84 -25 0 -14 -7 -16 -40 -12 -53 7 -90 -16 -90 -57 0 -15 7 -36 16 -44 18 -18
66 -21 95 -6 13 7 19 7 19 0 0 -5 9 -10 20 -10 18 0 20 7 20 74 0 96 -20 126
-86 126 -32 0 -50 -6 -65 -21z m108 -105 c6 -18 -26 -44 -53 -44 -26 0 -40 20
-30 46 7 18 77 16 83 -2z"/>
<path d="M7134 10270 c-1 -91 0 -100 17 -100 17 0 19 8 19 65 0 52 4 69 20 85
22 22 37 25 60 10 10 -6 16 -32 18 -84 3 -56 8 -76 18 -76 11 0 14 19 14 83 0
69 -3 87 -18 100 -22 20 -72 22 -91 5 -11 -10 -14 -10 -18 0 -3 6 -12 12 -21
12 -15 0 -17 -13 -18 -100z"/>
<path d="M8252 9178 c-8 -8 -12 -57 -12 -155 0 -169 -5 -163 130 -163 135 0
130 -6 130 163 0 98 -4 147 -12 155 -8 8 -49 12 -118 12 -69 0 -110 -4 -118
-12z m218 -153 l0 -125 -94 0 -95 0 -3 28 c-2 15 -2 71 0 125 l3 97 95 0 94 0
0 -125z"/>
<path d="M6090 9000 c0 -143 1 -150 20 -150 16 0 20 7 20 34 0 18 7 39 15 46
12 10 19 4 42 -34 20 -33 34 -45 52 -46 23 0 23 0 6 27 -10 14 -27 42 -38 60
l-20 34 39 40 c36 37 37 39 14 39 -15 0 -41 -16 -67 -42 l-43 -42 0 92 c0 85
-1 92 -20 92 -19 0 -20 -7 -20 -150z"/>
<path d="M6300 9000 c0 -139 1 -150 18 -150 16 0 19 9 21 67 2 70 18 103 51
103 31 0 40 -23 40 -97 0 -66 2 -73 20 -73 18 0 20 7 20 78 0 93 -15 122 -63
122 -18 0 -42 -7 -54 -15 -21 -15 -21 -14 -18 50 3 58 1 65 -16 65 -18 0 -19
-9 -19 -150z"/>
<path d="M6670 9083 c0 -63 -1 -65 -18 -50 -28 25 -78 21 -107 -8 -33 -32 -35
-110 -4 -149 24 -31 81 -36 111 -9 17 15 18 15 18 0 0 -10 8 -17 20 -17 18 0
19 8 19 150 0 143 -1 150 -19 150 -18 0 -20 -7 -20 -67z m-20 -83 c38 -38 13
-120 -38 -120 -36 0 -57 26 -57 70 0 65 53 92 95 50z"/>
<path d="M6806 9127 c-16 -16 -24 -33 -21 -47 3 -16 -2 -24 -15 -27 -11 -3
-20 -14 -20 -24 0 -12 5 -16 15 -13 17 7 17 8 17 -93 1 -64 3 -73 19 -73 16 0
19 10 21 83 3 76 5 82 26 85 31 5 29 32 -3 32 -15 0 -25 6 -25 14 0 30 13 46
37 46 18 0 24 5 21 18 -5 27 -44 27 -72 -1z"/>
<path d="M7120 9000 c0 -143 1 -150 20 -150 11 0 20 5 20 10 0 7 6 7 19 0 34
-18 80 -12 106 15 20 19 25 34 25 75 0 41 -5 56 -25 75 -28 29 -85 34 -109 9
-15 -14 -16 -9 -16 50 0 59 -2 66 -20 66 -19 0 -20 -7 -20 -150z m132 3 c37
-34 13 -123 -34 -123 -53 0 -80 94 -36 124 29 20 47 20 70 -1z"/>
<path d="M7810 9000 c0 -143 1 -150 20 -150 16 0 20 7 20 34 0 18 6 39 14 45
11 9 19 3 42 -34 17 -25 37 -45 47 -45 23 0 22 5 -13 62 -16 26 -30 54 -30 60
0 7 14 27 32 45 50 52 4 43 -49 -9 l-43 -42 0 92 c0 85 -1 92 -20 92 -19 0
-20 -7 -20 -150z"/>
<path d="M2242 9014 c3 -113 4 -116 31 -140 20 -17 40 -24 68 -24 87 0 109 37
109 180 0 93 -1 100 -20 100 -19 0 -20 -7 -20 -101 0 -55 -4 -109 -10 -119
-19 -35 -88 -33 -112 4 -4 6 -8 57 -8 114 0 97 -1 102 -21 102 -20 0 -21 -4
-17 -116z"/>
<path d="M2517 9124 c-3 -5 -5 -69 -5 -141 0 -125 1 -133 19 -133 16 0 19 7
19 49 l0 49 56 4 c70 6 99 31 99 88 0 62 -29 83 -114 88 -38 2 -71 0 -74 -4z
m145 -59 c8 -19 8 -31 0 -50 -10 -22 -18 -25 -62 -25 l-50 0 0 50 0 50 50 0
c44 0 52 -3 62 -25z"/>
<path d="M2760 8990 c0 -133 1 -140 20 -140 19 0 20 7 20 140 0 133 -1 140
-20 140 -19 0 -20 -7 -20 -140z"/>
<path d="M2962 8993 c3 -122 5 -138 21 -141 15 -3 17 9 17 137 0 136 -1 141
-21 141 -20 0 -20 -4 -17 -137z"/>
<path d="M3070 8990 l0 -140 61 0 c107 0 159 44 159 135 0 100 -49 145 -159
145 l-61 0 0 -140z m155 75 c20 -19 25 -34 25 -75 0 -69 -29 -100 -95 -100
l-45 0 0 100 0 100 45 0 c35 0 52 -6 70 -25z"/>
<path d="M4312 9107 c-26 -27 -28 -54 -7 -85 15 -20 14 -24 -6 -51 -41 -55 -3
-121 71 -121 74 0 112 66 71 121 -20 27 -21 31 -6 51 21 32 19 61 -8 86 -32
30 -87 29 -115 -1z m88 -21 c6 -8 10 -25 8 -38 -2 -19 -9 -23 -38 -23 -29 0
-36 4 -38 23 -4 28 14 52 38 52 10 0 23 -7 30 -14z m4 -122 c21 -20 20 -43 -1
-66 -31 -34 -83 -12 -83 36 0 44 52 63 84 30z"/>
<path d="M4532 9102 c-18 -15 -32 -35 -32 -46 0 -17 1 -17 25 -2 13 9 27 16
30 16 3 0 5 -49 5 -110 0 -103 1 -110 20 -110 19 0 20 7 20 140 0 127 -2 140
-17 140 -10 0 -33 -13 -51 -28z"/>
<path d="M4650 9110 c0 -18 7 -20 60 -20 l60 0 -25 -40 c-26 -41 -55 -135 -55
-177 0 -16 6 -23 19 -23 16 0 20 10 26 53 8 58 34 125 65 164 11 14 20 34 20
44 0 17 -9 19 -85 19 -78 0 -85 -2 -85 -20z"/>
<path d="M4850 9110 c0 -18 7 -20 60 -20 33 0 60 -3 60 -6 0 -3 -10 -19 -21
-36 -27 -37 -49 -110 -49 -160 0 -31 3 -38 20 -38 17 0 20 7 20 40 0 45 32
137 60 173 11 14 20 35 20 46 0 20 -5 21 -85 21 -78 0 -85 -2 -85 -20z"/>
<path d="M5093 9115 c-28 -19 -36 -54 -15 -62 9 -4 18 -1 20 5 6 19 32 42 47
42 23 0 45 -30 45 -62 0 -25 -13 -44 -60 -91 -33 -33 -60 -68 -60 -79 0 -16 9
-18 80 -18 73 0 80 2 80 20 0 17 -7 20 -52 20 l-52 0 41 43 c65 66 79 123 42
171 -24 30 -80 36 -116 11z"/>
<path d="M5296 9093 c-3 -21 -7 -54 -8 -73 l-3 -35 57 3 c50 3 58 1 68 -18 26
-49 -18 -103 -66 -81 -13 6 -24 17 -24 26 0 20 -29 19 -37 -2 -9 -24 40 -63
82 -63 53 0 88 36 88 90 0 68 -59 109 -114 80 -15 -9 -19 -7 -19 7 1 54 10 63
66 63 47 0 54 2 54 20 0 18 -7 20 -69 20 l-69 0 -6 -37z"/>
<path d="M5594 9116 c-17 -8 -43 -29 -57 -47 -89 -118 18 -292 154 -253 45 13
31 29 -21 26 -118 -9 -182 130 -101 220 22 24 37 32 78 35 47 5 54 3 88 -29
29 -27 38 -43 42 -79 4 -33 1 -48 -11 -58 -29 -25 -46 -6 -46 52 0 58 -6 72
-26 56 -8 -7 -14 -7 -19 1 -10 17 -54 11 -75 -10 -23 -23 -27 -86 -7 -113 18
-24 70 -32 86 -13 12 14 15 14 36 0 31 -20 61 -10 80 26 20 39 19 66 -6 116
-34 70 -122 102 -195 70z m85 -110 c31 -37 -9 -103 -46 -80 -37 23 -24 94 17
94 10 0 23 -6 29 -14z"/>
<path d="M8160 8957 c0 -106 4 -157 12 -165 8 -8 52 -12 130 -12 111 0 118 1
118 20 0 18 -8 20 -112 22 l-113 3 -2 130 c-1 72 -2 136 -2 143 -1 6 -8 12
-16 12 -13 0 -15 -24 -15 -153z"/>
<path d="M3344 9035 c-4 -9 -2 -21 4 -27 15 -15 44 -1 40 19 -4 23 -36 29 -44
8z"/>
<path d="M3565 9025 c-20 -19 -25 -34 -25 -75 0 -66 30 -100 87 -100 41 0 83
23 83 44 0 23 -26 25 -43 5 -49 -57 -125 29 -80 89 25 34 56 39 81 14 11 -11
26 -16 36 -12 16 5 16 8 -4 33 -30 37 -99 39 -135 2z"/>
<path d="M3767 9043 c-2 -5 -4 -50 -5 -100 0 -85 1 -93 19 -93 17 0 19 7 19
64 0 76 22 113 58 102 20 -7 22 -14 22 -87 0 -72 2 -79 20 -79 18 0 20 7 20
69 0 85 19 112 64 95 13 -5 16 -22 16 -85 0 -72 2 -79 20 -79 18 0 20 7 20 78
0 94 -15 122 -64 122 -19 0 -39 -7 -46 -15 -12 -14 -15 -14 -30 0 -20 18 -61
20 -79 3 -11 -10 -14 -10 -18 0 -5 13 -29 17 -36 5z"/>
<path d="M4107 9032 c-20 -22 -22 -55 -4 -70 6 -5 31 -15 55 -22 24 -6 46 -18
49 -27 12 -30 -54 -46 -77 -18 -16 19 -40 19 -40 1 0 -43 104 -62 140 -26 40
40 16 83 -56 98 -29 6 -39 13 -39 27 0 23 40 34 58 16 13 -13 47 -15 47 -3 0
39 -103 57 -133 24z"/>
<path d="M5879 9021 c-23 -23 -29 -38 -29 -71 0 -112 159 -141 189 -35 12 45
-2 99 -32 120 -37 26 -94 19 -128 -14z m106 -15 c14 -10 20 -26 20 -56 0 -65
-53 -92 -95 -50 -57 57 11 153 75 106z"/>
<path d="M6937 9039 c-28 -16 -49 -74 -41 -115 8 -44 46 -74 93 -74 35 0 81
28 81 49 0 18 -28 18 -43 0 -34 -40 -97 -7 -97 51 0 55 59 89 94 55 19 -19 46
-19 46 -1 0 37 -90 60 -133 35z"/>
<path d="M7379 9029 c-17 -17 -19 -23 -8 -30 8 -5 20 -2 30 7 32 29 89 12 89
-27 0 -14 -8 -16 -44 -12 -38 5 -48 2 -71 -21 -42 -42 -14 -96 50 -96 17 0 37
6 44 13 11 10 14 10 18 0 3 -7 14 -13 25 -13 19 0 20 5 17 79 -5 98 -21 121
-86 121 -30 0 -49 -6 -64 -21z m106 -100 c10 -15 -25 -49 -50 -49 -32 0 -51
25 -35 45 14 17 76 20 85 4z"/>
<path d="M7580 8950 c0 -93 1 -100 20 -100 18 0 20 7 20 68 0 71 16 102 51
102 30 0 39 -24 39 -97 0 -66 2 -73 20 -73 18 0 20 7 20 78 0 94 -15 122 -65
122 -18 0 -41 -7 -49 -16 -15 -14 -16 -14 -16 0 0 9 -8 16 -20 16 -19 0 -20
-7 -20 -100z"/>
<path d="M3351 8900 c-19 -11 -9 -45 14 -45 13 0 21 8 23 21 3 23 -17 37 -37
24z"/>
<path d="M6075 2549 c-206 -27 -396 -198 -450 -406 -19 -73 -19 -202 0 -273
38 -144 142 -275 271 -342 137 -72 23 -68 1796 -68 1120 0 1613 3 1650 11 205
42 379 217 423 424 27 130 15 226 -46 353 -67 138 -181 236 -339 288 -52 18
-131 19 -1645 20 -890 1 -1621 -2 -1660 -7z m258 -357 c21 -19 22 -51 1 -81
-14 -19 -23 -22 -58 -19 -34 4 -52 -2 -108 -34 -38 -21 -68 -44 -68 -51 0 -7
32 -31 70 -54 61 -37 74 -41 97 -32 22 8 32 6 52 -9 32 -23 38 -55 17 -88 -32
-47 -116 -21 -116 36 0 8 -31 35 -70 58 -57 36 -73 41 -89 33 -26 -15 -68 2
-82 32 -23 50 25 99 83 84 33 -9 158 62 158 89 0 21 23 48 50 56 19 6 40 -1
63 -20z m627 -77 c0 -30 2 -55 5 -55 2 0 15 5 29 11 65 30 106 -22 106 -136 0
-63 -1 -65 -25 -65 -24 0 -25 2 -25 64 0 83 -6 96 -41 96 -37 0 -49 -24 -49
-99 0 -58 -1 -61 -25 -61 l-25 0 0 150 0 150 25 0 c24 0 25 -3 25 -55z m2140
-95 l0 -150 -25 0 c-14 0 -25 5 -25 11 0 5 -10 3 -22 -5 -34 -24 -66 -19 -99
13 -25 25 -29 37 -29 81 0 44 4 56 30 82 31 30 55 34 103 13 15 -6 17 -1 17
49 0 53 1 56 25 56 l25 0 0 -150z m-2258 110 c23 -28 23 -46 1 -55 -12 -4 -23
1 -32 14 -23 35 -101 23 -88 -13 4 -9 32 -27 64 -41 67 -30 83 -47 83 -90 0
-49 -40 -80 -101 -80 -39 0 -54 5 -73 25 -33 34 -37 64 -10 68 14 2 27 -6 38
-22 28 -43 101 -32 94 15 -2 18 -15 28 -53 42 -53 19 -95 57 -95 85 0 24 28
62 54 73 34 14 99 3 118 -21z m1186 -3 c52 -48 66 -126 33 -190 -10 -21 -17
-46 -14 -56 6 -22 -11 -36 -29 -24 -7 4 -38 8 -68 8 -65 1 -101 21 -124 70
-52 108 25 234 133 220 26 -3 55 -15 69 -28z m271 6 c12 -10 24 -35 28 -55 5
-32 1 -41 -26 -68 l-31 -32 31 -55 31 -55 -28 4 c-22 2 -35 14 -59 55 -22 39
-36 53 -52 53 -21 0 -23 -5 -23 -55 0 -51 -2 -55 -24 -55 l-24 0 -1 140 -2
140 80 0 c60 0 84 -4 100 -17z m-1008 -79 c16 -14 19 -31 19 -101 0 -76 -2
-83 -20 -83 -11 0 -20 5 -20 11 0 5 -10 3 -22 -5 -32 -23 -65 -20 -93 9 -52
51 -18 105 65 105 52 0 60 8 34 34 -19 20 -35 20 -60 1 -25 -19 -54 -19 -54
-1 0 8 12 24 28 36 32 26 91 23 123 -6z m189 1 c0 -19 -5 -25 -23 -25 -37 0
-47 -19 -47 -92 0 -66 -1 -68 -25 -68 l-25 0 0 100 0 101 35 -3 c19 -1 37 1
41 5 4 4 16 7 26 7 13 0 18 -7 18 -25z m182 -3 c10 -10 21 -35 25 -55 l6 -37
-77 0 c-42 0 -76 -3 -76 -6 0 -3 5 -14 10 -25 12 -21 74 -27 85 -9 9 15 45 12
45 -3 0 -28 -41 -52 -87 -52 -36 0 -49 5 -68 28 -69 79 -14 197 84 183 19 -3
43 -14 53 -24z m961 -3 c9 -12 17 -27 17 -35 0 -19 -34 -18 -50 2 -22 25 -73
14 -84 -18 -16 -45 3 -82 42 -86 22 -2 34 2 38 12 7 17 39 22 48 7 17 -27 -38
-71 -88 -71 -14 0 -40 13 -58 29 -29 26 -33 36 -33 79 0 52 19 85 60 103 31
13 88 2 108 -22z m184 21 c84 -30 83 -172 -2 -200 -77 -25 -135 17 -135 99 0
86 57 128 137 101z m495 -18 c10 -10 21 -35 25 -55 l6 -37 -77 0 c-42 0 -76
-4 -76 -8 0 -5 6 -16 13 -26 14 -19 25 -19 100 0 32 8 35 -4 8 -37 -15 -19
-29 -24 -65 -24 -57 0 -92 31 -101 90 -7 46 20 99 58 115 31 13 87 4 109 -18z"/>
<path d="M6276 2163 c-11 -11 -6 -23 9 -23 8 0 15 4 15 9 0 13 -16 22 -24 14z"/>
<path d="M6022 2008 c6 -18 28 -21 28 -4 0 9 -7 16 -16 16 -9 0 -14 -5 -12
-12z"/>
<path d="M6270 1865 c0 -8 7 -15 15 -15 8 0 15 7 15 15 0 8 -7 15 -15 15 -8 0
-15 -7 -15 -15z"/>
<path d="M8956 2008 c-9 -12 -16 -29 -16 -38 0 -51 77 -83 100 -41 37 69 -41
141 -84 79z"/>
<path d="M7891 2093 c-24 -20 -37 -78 -27 -118 9 -37 42 -65 76 -65 33 0 35 2
19 31 -8 15 -7 24 2 36 12 13 15 12 32 -8 15 -19 20 -20 28 -8 23 36 -1 129
-36 143 -30 11 -73 6 -94 -11z"/>
<path d="M8170 2065 c0 -45 0 -45 36 -45 48 0 74 16 74 45 0 29 -26 45 -74 45
-36 0 -36 0 -36 -45z"/>
<path d="M7193 1953 c-20 -8 -15 -41 7 -48 23 -7 60 10 60 29 0 21 -37 32 -67
19z"/>
<path d="M7572 2033 c-7 -3 -17 -13 -22 -23 -9 -17 -5 -18 35 -18 44 0 66 12
49 28 -13 11 -47 19 -62 13z"/>
<path d="M8726 2008 c-9 -12 -16 -29 -16 -38 0 -51 77 -83 100 -41 14 26 13
74 -2 89 -20 20 -65 14 -82 -10z"/>
<path d="M9208 2029 c-35 -20 -21 -39 27 -39 48 0 58 13 28 36 -22 16 -32 17
-55 3z"/>
<path d="M1432 2534 c-74 -20 -188 -82 -223 -122 -16 -18 -29 -30 -29 -27 0
11 -46 -47 -79 -100 -96 -152 -100 -372 -9 -534 37 -67 41 -72 107 -138 51
-51 190 -130 231 -131 8 -1 35 -6 60 -12 31 -7 558 -10 1750 -8 l1705 3 55 21
c185 72 317 214 365 395 29 107 13 253 -40 362 -29 61 -109 165 -133 174 -9 4
-23 15 -30 25 -7 10 -20 18 -28 18 -8 0 -14 4 -14 8 0 12 -82 49 -148 66 -52
14 -265 16 -1773 15 -1457 0 -1722 -2 -1767 -15z m3571 -28 c37 -13 90 -39
117 -56 58 -37 152 -135 171 -179 7 -16 18 -27 24 -24 5 4 7 3 3 -1 -4 -5 2
-31 13 -58 26 -67 36 -216 19 -289 -17 -75 -48 -147 -82 -190 -15 -20 -25 -39
-23 -43 3 -3 3 -4 0 -3 -3 2 -29 -19 -58 -47 -29 -28 -55 -52 -59 -54 -4 -2
-36 -16 -70 -31 -35 -16 -87 -34 -116 -40 -38 -8 -531 -11 -1740 -11 -1869 0
-1750 -4 -1883 66 -88 46 -187 140 -204 193 -3 11 -12 27 -19 33 -7 7 -20 40
-29 73 -56 204 -9 392 136 538 37 38 67 66 67 63 0 -4 19 6 43 21 23 15 69 35
102 44 56 16 178 18 1790 18 l1730 1 68 -24z"/>
<path d="M1500 2160 c0 -43 3 -50 20 -50 16 0 20 7 20 30 0 27 3 30 30 30 23
0 30 4 30 20 0 17 -7 20 -50 20 l-50 0 0 -50z"/>
<path d="M1810 2190 c0 -16 7 -20 30 -20 27 0 30 -3 30 -30 0 -23 4 -30 20
-30 17 0 20 7 20 50 l0 50 -50 0 c-43 0 -50 -3 -50 -20z"/>
<path d="M1560 2090 l0 -60 65 0 65 0 0 60 0 60 -65 0 -65 0 0 -60z m100 0 c0
-28 -3 -30 -35 -30 -32 0 -35 2 -35 30 0 28 3 30 35 30 32 0 35 -2 35 -30z"/>
<path d="M1730 2090 l0 -60 60 0 60 0 0 60 0 60 -60 0 -60 0 0 -60z m90 0 c0
-27 -3 -30 -30 -30 -27 0 -30 3 -30 30 0 27 3 30 30 30 27 0 30 -3 30 -30z"/>
<path d="M2242 2116 c-36 -34 -37 -36 -37 -106 0 -70 1 -72 37 -106 30 -27 46
-34 78 -34 83 0 130 49 132 138 2 88 -48 142 -132 142 -32 0 -48 -7 -78 -34z
m128 -11 c66 -34 63 -160 -4 -192 -88 -41 -169 76 -112 162 28 43 70 54 116
30z"/>
<path d="M2510 1930 c0 -118 2 -140 15 -140 12 0 15 13 15 56 0 55 0 55 22 40
32 -23 73 -20 104 7 23 20 28 32 28 76 1 46 -3 56 -27 77 -32 28 -73 31 -105
8 -20 -14 -22 -14 -22 0 0 9 -7 16 -15 16 -13 0 -15 -22 -15 -140z m130 90
c38 -38 13 -120 -38 -120 -36 0 -57 26 -57 70 0 65 53 92 95 50z"/>
<path d="M2773 2055 c-33 -23 -47 -86 -29 -129 8 -19 23 -39 34 -45 34 -18 90
-13 113 10 28 28 10 48 -22 25 -31 -21 -62 -20 -82 2 -31 35 -21 42 58 42 69
0 75 2 75 21 0 25 -18 60 -39 76 -22 17 -82 16 -108 -2z m95 -27 c26 -26 13
-38 -43 -38 -59 0 -64 4 -38 32 18 20 63 24 81 6z"/>
<path d="M2970 1970 c0 -82 3 -100 15 -100 12 0 15 14 15 65 0 69 20 105 58
105 33 0 42 -22 42 -97 0 -64 2 -73 18 -73 16 0 19 9 21 55 2 66 -14 131 -35
139 -29 11 -67 6 -86 -11 -17 -15 -18 -15 -18 0 0 10 -7 17 -15 17 -12 0 -15
-18 -15 -100z"/>
<path d="M3314 2062 c-6 -4 -16 -17 -23 -30 -10 -19 -8 -26 13 -47 14 -14 36
-25 50 -25 34 0 61 -27 45 -46 -15 -18 -54 -18 -73 1 -16 17 -46 20 -46 5 0
-5 10 -18 22 -30 41 -38 138 -17 138 30 0 37 -13 50 -67 66 -40 12 -53 20 -51
32 4 20 55 29 71 13 6 -6 17 -11 24 -11 20 0 15 28 -6 40 -23 12 -81 13 -97 2z"/>
<path d="M3506 2039 c-19 -22 -26 -42 -26 -71 0 -85 99 -130 158 -71 24 24 25
27 7 33 -12 4 -25 0 -37 -12 -33 -33 -73 -20 -87 28 -20 69 41 122 90 78 10
-9 25 -14 34 -12 15 3 14 6 -5 31 -17 22 -29 27 -65 27 -36 0 -48 -5 -69 -31z"/>
<path d="M3720 2045 c-22 -24 -22 -25 -4 -25 11 0 25 5 31 11 6 6 26 9 44 7
28 -2 35 -7 37 -30 3 -25 2 -26 -37 -21 -53 7 -91 -16 -91 -56 0 -35 28 -61
65 -61 16 0 37 7 47 17 17 15 18 15 18 0 0 -10 8 -17 20 -17 18 0 20 7 20 75
0 67 -3 79 -25 100 -34 35 -93 34 -125 0z m110 -103 c0 -10 -5 -23 -12 -30
-17 -17 -63 -15 -78 3 -19 23 5 45 51 45 31 0 39 -4 39 -18z"/>
<path d="M3928 1970 c-3 -90 -1 -100 15 -100 14 0 17 10 17 63 0 68 18 107 50
107 36 0 50 -27 50 -101 0 -55 3 -69 15 -69 12 0 15 16 15 83 0 94 -13 117
-65 117 -16 0 -37 -7 -47 -17 -17 -15 -18 -15 -18 0 0 10 -6 17 -14 17 -12 0
-15 -21 -18 -100z"/>
<path d="M4150 1970 c0 -93 1 -100 20 -100 18 0 20 7 20 68 0 71 16 102 51
102 30 0 39 -24 39 -97 0 -66 2 -73 20 -73 18 0 20 7 20 78 0 94 -15 122 -65
122 -18 0 -41 -7 -49 -16 -15 -14 -16 -14 -16 0 0 9 -8 16 -20 16 -19 0 -20
-7 -20 -100z"/>
<path d="M4399 2041 c-60 -61 -22 -171 60 -171 40 0 81 23 81 46 0 18 -24 18
-40 -1 -24 -29 -79 -13 -93 28 -6 15 2 17 68 17 l75 0 0 30 c0 75 -95 107
-151 51z m103 -18 c29 -26 21 -33 -37 -33 -38 0 -55 4 -55 13 0 36 59 50 92
20z"/>
<path d="M4600 1970 c0 -93 1 -100 20 -100 18 0 20 7 20 69 0 74 14 101 51
101 10 0 19 7 19 15 0 18 -41 20 -59 3 -11 -10 -14 -10 -18 0 -3 6 -11 12 -19
12 -11 0 -14 -20 -14 -100z"/>
<path d="M1567 1984 c-4 -4 -7 -34 -7 -66 l0 -59 63 3 62 3 0 60 0 60 -55 3
c-31 2 -59 0 -63 -4z m93 -59 c0 -33 -2 -35 -35 -35 -33 0 -35 2 -35 35 0 33
2 35 35 35 33 0 35 -2 35 -35z"/>
<path d="M1730 1975 c0 -8 7 -15 15 -15 8 0 15 -7 15 -15 0 -8 7 -15 15 -15 8
0 15 7 15 15 0 8 7 15 15 15 8 0 15 -7 15 -15 0 -8 7 -15 15 -15 8 0 15 5 15
10 0 6 -7 13 -15 16 -8 4 -15 12 -15 20 0 8 -7 14 -15 14 -8 0 -15 -7 -15 -15
0 -8 -7 -15 -15 -15 -8 0 -15 7 -15 15 0 8 -7 15 -15 15 -8 0 -15 -7 -15 -15z"/>
<path d="M1730 1905 c0 -8 7 -15 15 -15 8 0 15 -7 15 -15 0 -8 7 -15 15 -15 8
0 15 7 15 15 0 8 7 15 15 15 8 0 15 -7 15 -15 0 -8 7 -15 15 -15 8 0 15 7 15
15 0 8 -7 15 -15 15 -8 0 -15 7 -15 15 0 8 -7 15 -15 15 -8 0 -15 -7 -15 -15
0 -8 -7 -15 -15 -15 -8 0 -15 7 -15 15 0 8 -7 15 -15 15 -8 0 -15 -7 -15 -15z"/>
<path d="M1500 1850 l0 -50 50 0 c43 0 50 3 50 20 0 16 -7 20 -30 20 -27 0
-30 3 -30 30 0 23 -4 30 -20 30 -17 0 -20 -7 -20 -50z"/>
<path d="M1870 1870 c0 -27 -3 -30 -30 -30 -23 0 -30 -4 -30 -20 0 -17 7 -20
50 -20 l50 0 0 50 c0 43 -3 50 -20 50 -16 0 -20 -7 -20 -30z"/>
<path d="M4958 874 c5 -25 3 -26 -32 -22 -23 2 -36 0 -36 -7 0 -8 12 -10 37
-6 38 6 56 32 35 53 -6 6 -8 0 -4 -18z"/>
<path d="M5002 888 c-18 -18 -15 -64 6 -79 14 -11 15 -11 5 1 -19 21 -16 67 5
79 9 6 12 11 7 11 -6 0 -16 -5 -23 -12z"/>
<path d="M5068 890 c15 -18 16 -62 0 -78 -8 -8 -8 -12 -1 -12 27 0 31 71 6 91
-15 11 -16 11 -5 -1z"/>
<path d="M5262 848 c3 -51 4 -53 33 -54 28 -2 28 -2 3 3 -26 4 -27 7 -25 54 2
27 0 49 -5 49 -5 0 -8 -24 -6 -52z"/>
<path d="M5362 860 c-1 -29 1 -40 7 -31 5 8 19 12 35 9 16 -3 26 -1 26 7 0 7
-11 10 -29 7 -26 -4 -30 -1 -34 24 -3 20 -4 15 -5 -16z"/>
<path d="M5562 848 c2 -35 8 -53 18 -55 12 -4 12 -3 1 5 -9 6 -12 25 -10 56 2
25 1 46 -4 46 -4 0 -7 -23 -5 -52z"/>
<path d="M5772 886 c7 -8 15 -12 17 -11 5 6 -10 25 -20 25 -5 0 -4 -6 3 -14z"/>
<path d="M5840 860 c17 -33 17 -33 24 -22 3 5 -4 18 -16 28 -21 19 -21 19 -8
-6z"/>
<path d="M5460 850 c0 -5 5 -10 10 -10 6 0 10 5 10 10 0 6 -4 10 -10 10 -5 0
-10 -4 -10 -10z"/>
<path d="M5632 828 c-10 -30 -10 -31 3 -14 13 17 21 46 12 46 -1 0 -8 -15 -15
-32z"/>
<path d="M5710 850 c0 -5 5 -10 10 -10 6 0 10 5 10 10 0 6 -4 10 -10 10 -5 0
-10 -4 -10 -10z"/>
<path d="M5775 840 c10 -11 20 -20 22 -20 2 0 -1 9 -7 20 -6 11 -16 20 -22 20
-6 0 -3 -9 7 -20z"/>
<path d="M5130 810 c0 -5 5 -10 10 -10 6 0 10 5 10 10 0 6 -4 10 -10 10 -5 0
-10 -4 -10 -10z"/>
<path d="M5201 804 c0 -11 3 -14 6 -6 3 7 2 16 -1 19 -3 4 -6 -2 -5 -13z"/>
<path d="M5470 798 c0 -4 14 -8 30 -8 17 0 30 2 30 4 0 2 -13 6 -30 8 -16 3
-30 1 -30 -4z"/>
<path d="M5720 799 c0 -5 11 -9 25 -9 14 0 25 2 25 4 0 2 -11 6 -25 8 -14 3
-25 1 -25 -3z"/>
<path d="M4796 544 c-26 -92 -45 -173 -42 -180 4 -11 45 -14 205 -14 180 0
200 2 206 18 7 18 95 330 95 338 0 3 -14 4 -31 2 l-32 -3 -38 -139 c-21 -76
-40 -140 -42 -143 -10 -9 -281 -5 -285 5 -1 5 13 65 33 133 19 68 35 129 35
136 0 8 -12 13 -29 13 -28 0 -29 -1 -75 -166z"/>
<path d="M5317 703 c-2 -5 -7 -20 -11 -35 l-6 -28 175 0 c186 0 180 2 166 -50
l-7 -25 -179 -5 -179 -5 -22 -75 c-39 -138 -38 -130 -4 -130 17 0 33 6 35 13
2 6 11 38 20 70 l16 57 164 0 c141 0 166 2 183 18 29 24 68 168 51 188 -9 11
-49 14 -205 14 -106 0 -195 -3 -197 -7z"/>
<path d="M5795 698 c-8 -23 -95 -338 -95 -344 0 -3 14 -4 32 -2 l32 3 43 155
c23 85 45 165 48 178 5 19 2 22 -25 22 -17 0 -33 -6 -35 -12z"/>
<path d="M5880 535 c-23 -86 -41 -157 -39 -159 2 -2 41 31 87 75 l83 78 -41
81 c-22 44 -42 80 -43 80 -2 0 -23 -70 -47 -155z"/>
<path d="M5996 678 c-3 -10 -8 -25 -11 -34 -3 -8 7 -38 21 -66 l25 -50 -47
-42 c-44 -39 -82 -101 -69 -114 3 -3 43 31 88 76 l82 82 -42 82 c-29 60 -43
78 -47 66z"/>
<path d="M5018 283 c7 -3 16 -2 19 1 4 3 -2 6 -13 5 -11 0 -14 -3 -6 -6z"/>
<path d="M5108 283 c7 -3 16 -2 19 1 4 3 -2 6 -13 5 -11 0 -14 -3 -6 -6z"/>
<path d="M5448 283 c7 -3 16 -2 19 1 4 3 -2 6 -13 5 -11 0 -14 -3 -6 -6z"/>
<path d="M5668 283 c7 -3 16 -2 19 1 4 3 -2 6 -13 5 -11 0 -14 -3 -6 -6z"/>
<path d="M5928 283 c7 -3 16 -2 19 1 4 3 -2 6 -13 5 -11 0 -14 -3 -6 -6z"/>
<path d="M5370 270 c0 -5 5 -10 11 -10 5 0 7 5 4 10 -3 6 -8 10 -11 10 -2 0
-4 -4 -4 -10z"/>
<path d="M5138 243 c6 -2 18 -2 25 0 6 3 1 5 -13 5 -14 0 -19 -2 -12 -5z"/>
<path d="M5848 243 c6 -2 18 -2 25 0 6 3 1 5 -13 5 -14 0 -19 -2 -12 -5z"/>
</g>
</svg>
